<svg width="16" height="16" viewBox="0 0 16 16" fill="none" xmlns="http://www.w3.org/2000/svg">
<path d="M15.0001 9C15.5524 9 16.0001 8.55228 16.0001 8C16.0001 7.44772 15.5524 7 15.0001 7V9ZM0.292986 7.29289C-0.097539 7.68342 -0.097539 8.31658 0.292986 8.70711L6.65695 15.0711C7.04747 15.4616 7.68064 15.4616 8.07116 15.0711C8.46168 14.6805 8.46168 14.0474 8.07116 13.6569L2.41431 8L8.07116 2.34315C8.46168 1.95262 8.46168 1.31946 8.07116 0.928933C7.68064 0.538408 7.04747 0.538408 6.65695 0.928933L0.292986 7.29289ZM15.0001 7H1.00009V9H15.0001V7Z" fill="#F5D16C"/>
</svg>
