<svg width="14" height="14" viewBox="0 0 14 14" fill="none" xmlns="http://www.w3.org/2000/svg">
<path d="M4.95835 13.4166C5.65974 13.4213 6.35502 13.2861 7.00352 13.0188C7.55706 13.2829 8.16296 13.4188 8.77624 13.4166C9.38953 13.4144 9.99443 13.2741 10.5461 13.006C11.0977 12.738 11.5818 12.3492 11.9626 11.8684C12.3433 11.3876 12.6109 10.8273 12.7454 10.2289C12.8799 9.63056 12.8779 9.00959 12.7396 8.41211C12.6012 7.81464 12.3301 7.256 11.9462 6.77768C11.5624 6.29936 11.0758 5.91364 10.5224 5.64916C9.9691 5.38469 9.3633 5.24825 8.75002 5.24998V3.1109C8.75002 1.69165 7.0846 0.583313 4.95835 0.583313C2.8321 0.583313 1.16669 1.69165 1.16669 3.1109V10.8891C1.16669 12.3083 2.8321 13.4166 4.95835 13.4166ZM8.75002 6.41665C9.32688 6.41665 9.89079 6.58771 10.3704 6.90819C10.8501 7.22868 11.2239 7.6842 11.4447 8.21715C11.6654 8.7501 11.7232 9.33655 11.6106 9.90233C11.4981 10.4681 11.2203 10.9878 10.8124 11.3957C10.4045 11.8036 9.88481 12.0814 9.31903 12.1939C8.75326 12.3065 8.16681 12.2487 7.63386 12.028C7.10091 11.8072 6.64539 11.4334 6.3249 10.9537C6.00441 10.4741 5.83335 9.91017 5.83335 9.33331C5.83428 8.56005 6.14187 7.81872 6.68865 7.27194C7.23543 6.72516 7.97676 6.41757 8.75002 6.41665ZM4.95835 1.74998C6.50535 1.74998 7.58335 2.46748 7.58335 3.1109C7.58335 3.75431 6.50535 4.4724 4.95835 4.4724C3.41135 4.4724 2.33335 3.7549 2.33335 3.1109C2.33335 2.4669 3.41135 1.74998 4.95835 1.74998ZM2.33335 4.94781C3.12661 5.4189 4.03596 5.65837 4.95835 5.63906C5.88074 5.65837 6.7901 5.4189 7.58335 4.94781V5.42498C6.68569 5.69366 5.90724 6.26191 5.37777 7.03498C5.23835 7.04723 5.1001 7.06473 4.95835 7.06473C3.41135 7.06473 2.33335 6.34723 2.33335 5.70381V4.94781ZM2.33335 7.54073C3.08695 7.98774 3.94682 8.22406 4.82302 8.22498C4.72014 8.58547 4.66753 8.95843 4.66669 9.33331C4.66669 9.43715 4.67485 9.53923 4.68244 9.64131C3.28769 9.56081 2.33335 8.8999 2.33335 8.29615V7.54073ZM2.33335 10.1331C3.12493 10.603 4.03214 10.8422 4.95252 10.8237C5.14924 11.3232 5.4424 11.7791 5.81527 12.1654C5.53293 12.2205 5.24602 12.2488 4.95835 12.25C3.41135 12.25 2.33335 11.5325 2.33335 10.8891V10.1331Z" fill="#F5CC5C"/>
</svg>
