<svg width="14" height="14" viewBox="0 0 14 14" fill="none" xmlns="http://www.w3.org/2000/svg">
<path d="M13.8874 11.3152L12.7971 8.16003C12.796 8.15678 12.7947 8.15355 12.7935 8.15032C12.5114 7.42443 11.9786 6.79437 11.2898 6.35491C11.8492 5.96222 11.9684 5.55354 11.9684 5.27734C11.9684 5.03672 11.8818 4.80463 11.7109 4.5873C11.7107 4.58711 11.711 4.58749 11.7109 4.5873L8.87446 0.857965C8.44537 0.313004 7.7747 0 7.0368 0C6.31003 0 5.64728 0.304746 5.21678 0.83743L2.30157 4.57168C2.1225 4.79325 2.03163 5.03073 2.03163 5.27734C2.03163 5.55502 2.15168 5.96291 2.71016 6.35493C2.02136 6.79437 1.48878 7.42413 1.20651 8.15035C1.20525 8.15358 1.20405 8.1568 1.20287 8.16006L0.112569 11.3153C-0.362287 12.6419 0.724372 14 2.26032 14C2.54885 14 11.3362 14 11.7397 14C13.276 14 14.3622 12.6417 13.8874 11.3152ZM5.94502 1.32278C6.20334 1.00313 6.60096 0.820312 7.03707 0.820312C7.03999 0.820312 7.04291 0.820312 7.04583 0.82034C7.48533 0.822801 7.88404 1.01043 8.13965 1.33509L9.79063 3.55884C8.99346 3.34633 8.03107 3.22656 7 3.22656C6.33252 3.22656 5.69317 3.27715 5.10837 3.37053C5.1063 3.37088 5.10422 3.37116 5.10217 3.37154C4.80181 3.41969 4.51611 3.47922 4.24845 3.54911L5.94502 1.32278ZM8.35347 4.12612V4.5162C8.31945 5.17368 7.72659 5.6875 7 5.6875C6.27341 5.6875 5.68055 5.17368 5.64652 4.51623V4.12374C6.05857 4.07501 6.51081 4.04688 7 4.04688C7.48311 4.04688 7.93664 4.07578 8.35347 4.12612ZM3.0723 5.00883C3.32641 4.74217 3.9044 4.464 4.74318 4.27574V4.52517C4.74318 4.53075 4.7433 4.53633 4.74358 4.54191C4.79314 5.6443 5.78431 6.50781 7 6.50781C8.21569 6.50781 9.20686 5.6443 9.25645 4.54191C9.25673 4.53633 9.25685 4.53075 9.25685 4.52517V4.2799C10.0876 4.46709 10.6812 4.74305 10.9357 5.0172C11.0039 5.09078 11.065 5.18164 11.065 5.27734C11.065 5.45743 10.8447 5.63363 10.7134 5.72261C10.7116 5.72378 10.7101 5.72515 10.7084 5.72636C10.7066 5.72759 10.7048 5.72857 10.703 5.72983L7.05254 8.35598C6.92999 8.27028 3.4035 5.80349 3.31783 5.74358C3.31612 5.74238 3.31431 5.74145 3.31256 5.74027C3.31079 5.73907 3.30919 5.73768 3.30738 5.73647C3.1683 5.64487 2.93497 5.46342 2.93497 5.27734C2.93497 5.17809 3.00058 5.084 3.0723 5.00883ZM2.93497 9.70703V13.1797H2.26032C1.33858 13.1797 0.686763 12.3647 0.971707 11.5688L2.06017 8.4187C2.31253 7.77306 2.81949 7.22597 3.47134 6.88644L5.74463 8.47656H4.28998C3.54282 8.47656 2.93497 9.02855 2.93497 9.70703ZM10.1617 13.1797H3.83831V9.70703C3.83831 9.48087 4.04093 9.29688 4.28998 9.29688H9.71002C9.95907 9.29688 10.1617 9.48087 10.1617 9.70703V13.1797ZM11.7397 13.1797H11.065V9.70703C11.065 9.02855 10.4572 8.47656 9.71002 8.47656H8.33971L10.5415 6.89259C11.1938 7.23335 11.6853 7.76724 11.9398 8.41862L13.0283 11.5688C13.3133 12.3648 12.6612 13.1797 11.7397 13.1797Z" fill="#F5CC5C"/>
<path d="M6.58826 10.7059H7.52159V11.5262H6.58826V10.7059Z" fill="#F5CC5C"/>
</svg>
