<svg width="14" height="14" viewBox="0 0 14 14" fill="none" xmlns="http://www.w3.org/2000/svg">
<path d="M8.30834 3.429C8.30834 3.67797 8.0854 3.8798 7.81039 3.8798C7.53538 3.8798 7.31244 3.67797 7.31244 3.429C7.31244 3.18004 7.53538 2.97821 7.81039 2.97821C8.0854 2.97821 8.30834 3.18004 8.30834 3.429Z" fill="#F5CC5C"/>
<path fill-rule="evenodd" clip-rule="evenodd" d="M2.59562 12.5887C3.79849 13.4712 5.33104 14 7 14C10.866 14 14 11.1628 14 7.66293C14 7.04244 13.9013 6.44176 13.7169 5.8736C13.6121 5.55072 13.238 5.36589 12.8814 5.46076C12.5247 5.55563 12.3205 5.89428 12.4253 6.21716C12.5739 6.67491 12.6538 7.15994 12.6538 7.66293C12.6538 10.4897 10.1225 12.7813 7 12.7813C6.89 12.7813 6.78073 12.7785 6.67227 12.7729C7.8614 12.1898 8.66898 11.0504 8.66898 9.74012C8.66898 9.17777 8.52029 8.64699 8.25656 8.17818C8.10337 7.90585 7.94646 7.62381 7.94646 7.31821C7.94646 6.23331 8.69103 5.30436 9.74523 4.93015C10.4015 4.69718 10.8364 4.24501 10.9794 3.72315C11.1813 3.69082 11.3346 3.5312 11.3346 3.33915C11.3346 3.1458 11.1792 2.98532 10.9753 2.95451C10.8559 2.54295 10.5462 2.17691 10.0683 1.96563C9.44133 1.68844 8.73453 1.49196 8.01413 1.39356C7.81325 0.595542 7.02455 0 6.08221 0C4.9879 0 4.10078 0.803099 4.10078 1.79377C4.10078 1.8268 4.10177 1.85962 4.10372 1.89221C1.68379 2.88918 0 5.09736 0 7.66293C0 9.63629 0.996342 11.399 2.55846 12.5612L2.55691 12.5631C2.56975 12.5717 2.58266 12.5802 2.59562 12.5887ZM5.44694 1.79377C5.44694 1.47615 5.73136 1.21867 6.08221 1.21867C6.43305 1.21867 6.71747 1.47615 6.71747 1.79377C6.71747 2.20249 7.0648 2.52618 7.49243 2.56289C8.19217 2.62296 8.88717 2.79967 9.47754 3.06068C9.63534 3.13045 9.69605 3.25131 9.68293 3.37611C9.67033 3.4958 9.57614 3.68117 9.25382 3.79558C7.90549 4.27421 6.89759 5.36959 6.65591 6.69957C6.31122 6.53255 5.93482 6.41213 5.537 6.34759C5.1711 6.28823 4.82132 6.50863 4.75575 6.83988C4.69017 7.17113 4.93364 7.48778 5.29954 7.54715C6.44985 7.73377 7.32283 8.64528 7.32283 9.74012C7.32283 10.9706 6.22096 11.9681 4.86173 11.9681C4.28873 11.9681 3.77953 11.8464 3.40987 11.6172C2.14973 10.6784 1.34615 9.25565 1.34615 7.66293C1.34615 5.60301 2.69061 3.82602 4.63024 3.01429C4.71643 3.09832 4.81135 3.17479 4.91364 3.24248C5.21373 3.44109 5.63485 3.38186 5.85423 3.11019C6.07361 2.83852 6.00819 2.45728 5.7081 2.25868C5.54846 2.15303 5.44694 1.98417 5.44694 1.79377Z" fill="#F5CC5C"/>
</svg>
