<svg width="27" height="27" viewBox="0 0 27 27" fill="none" xmlns="http://www.w3.org/2000/svg">
<circle cx="13.5" cy="13.5" r="13.5" fill="#FDAD22"/>
<path d="M12.0209 21.2916C12.8725 21.2973 13.7168 21.1331 14.5043 20.8086C15.1764 21.1292 15.9122 21.2943 16.6569 21.2916C17.4016 21.2889 18.1361 21.1185 18.8059 20.7931C19.4757 20.4676 20.0637 19.9954 20.526 19.4116C20.9883 18.8278 21.3132 18.1474 21.4766 17.4208C21.6399 16.6943 21.6375 15.9402 21.4695 15.2147C21.3015 14.4892 20.9722 13.8109 20.5061 13.23C20.0401 12.6492 19.4491 12.1809 18.7772 11.8597C18.1053 11.5386 17.3697 11.3729 16.625 11.375V8.77752C16.625 7.05415 14.6027 5.70831 12.0209 5.70831C9.43898 5.70831 7.41669 7.05415 7.41669 8.77752V18.2224C7.41669 19.9458 9.43898 21.2916 12.0209 21.2916ZM16.625 12.7916C17.3255 12.7916 18.0102 12.9994 18.5927 13.3885C19.1751 13.7777 19.629 14.3308 19.8971 14.978C20.1652 15.6251 20.2353 16.3372 20.0986 17.0243C19.962 17.7113 19.6247 18.3423 19.1294 18.8376C18.634 19.333 18.003 19.6703 17.316 19.8069C16.6289 19.9436 15.9168 19.8734 15.2697 19.6054C14.6225 19.3373 14.0694 18.8834 13.6802 18.301C13.2911 17.7185 13.0834 17.0338 13.0834 16.3333C13.0845 15.3944 13.458 14.4942 14.1219 13.8302C14.7859 13.1663 15.6861 12.7928 16.625 12.7916ZM12.0209 7.12498C13.8994 7.12498 15.2084 7.99623 15.2084 8.77752C15.2084 9.55881 13.8994 10.4308 12.0209 10.4308C10.1424 10.4308 8.83335 9.55952 8.83335 8.77752C8.83335 7.99552 10.1424 7.12498 12.0209 7.12498ZM8.83335 11.0081C9.79659 11.5801 10.9008 11.8709 12.0209 11.8474C13.1409 11.8709 14.2451 11.5801 15.2084 11.0081V11.5875C14.1183 11.9137 13.1731 12.6037 12.5301 13.5425C12.3609 13.5574 12.193 13.5786 12.0209 13.5786C10.1424 13.5786 8.83335 12.7074 8.83335 11.9261V11.0081ZM8.83335 14.1566C9.74844 14.6994 10.7926 14.9864 11.8565 14.9875C11.7316 15.4252 11.6677 15.8781 11.6667 16.3333C11.6667 16.4594 11.6766 16.5834 11.6858 16.7073C9.99219 16.6096 8.83335 15.807 8.83335 15.0739V14.1566ZM8.83335 17.3044C9.79455 17.8751 10.8962 18.1656 12.0138 18.1431C12.2526 18.7497 12.6086 19.3033 13.0614 19.7723C12.7186 19.8392 12.3702 19.8736 12.0209 19.875C10.1424 19.875 8.83335 19.0037 8.83335 18.2224V17.3044Z" fill="white"/>
</svg>
