<svg width="288" height="293" viewBox="0 0 288 293" fill="none" xmlns="http://www.w3.org/2000/svg">
<path d="M143.999 0.5C150.903 0.5 156.499 6.09644 156.499 13V189.973L196.011 150.461C200.892 145.579 208.807 145.579 213.688 150.461C218.57 155.343 218.57 163.257 213.688 168.139L164.739 217.088C153.285 228.542 134.714 228.542 123.259 217.088L74.3103 168.139C69.4287 163.257 69.4287 155.343 74.3103 150.461C79.1918 145.579 87.1064 145.579 91.988 150.461L131.499 189.972V13C131.499 6.09644 137.095 0.5 143.999 0.5Z" fill="#F5CC5C"/>
<path d="M25.7363 198.14C25.7363 191.236 20.1399 185.64 13.2363 185.64C6.33278 185.64 0.736335 191.236 0.736335 198.14L0.736331 198.677C0.736212 212.723 0.736115 224.025 1.48341 233.171C2.25213 242.58 3.87349 250.803 7.74324 258.398C13.9067 270.494 23.7414 280.329 35.8379 286.493C43.4327 290.362 51.6558 291.984 61.0645 292.752C70.211 293.5 81.513 293.5 95.5593 293.5H192.44C206.486 293.5 217.788 293.5 226.935 292.752C236.343 291.984 244.566 290.362 252.161 286.493C264.258 280.329 274.093 270.494 280.256 258.398C284.126 250.803 285.747 242.58 286.516 233.171C287.263 224.025 287.263 212.723 287.263 198.677V198.14C287.263 191.236 281.666 185.64 274.763 185.64C267.859 185.64 262.263 191.236 262.263 198.14C262.263 212.848 262.253 223.127 261.599 231.136C260.956 238.998 259.756 243.565 257.981 247.048C254.214 254.441 248.204 260.451 240.812 264.217C237.328 265.992 232.762 267.193 224.899 267.836C216.89 268.49 206.611 268.5 191.903 268.5H96.0963C81.3882 268.5 71.1088 268.49 63.1003 267.836C55.2376 267.193 50.6708 265.992 47.1877 264.217C39.7952 260.451 33.785 254.441 30.0184 247.048C28.2437 243.565 27.0428 238.998 26.4004 231.136C25.7461 223.127 25.7363 212.848 25.7363 198.14Z" fill="#F5CC5C"/>
</svg>
