<svg width="18" height="18" viewBox="0 0 18 18" fill="none" xmlns="http://www.w3.org/2000/svg">
<path d="M9.75 10.7197L12.1098 8.35983C12.2563 8.21339 12.4937 8.21339 12.6402 8.35983C12.7866 8.50628 12.7866 8.74372 12.6402 8.89017L9.64017 11.8902C9.49372 12.0366 9.25628 12.0366 9.10983 11.8902L6.10983 8.89017C5.96339 8.74372 5.96339 8.50628 6.10983 8.35983C6.25628 8.21339 6.49372 8.21339 6.64017 8.35983L9 10.7197V2.625C9 2.41789 9.16789 2.25 9.375 2.25C9.58211 2.25 9.75 2.41789 9.75 2.625V10.7197ZM15 11.625C15 11.4179 15.1679 11.25 15.375 11.25C15.5821 11.25 15.75 11.4179 15.75 11.625V13.875C15.75 14.9105 14.9105 15.75 13.875 15.75H4.875C3.83947 15.75 3 14.9105 3 13.875V11.625C3 11.4179 3.16789 11.25 3.375 11.25C3.58211 11.25 3.75 11.4179 3.75 11.625V13.875C3.75 14.4963 4.25368 15 4.875 15H13.875C14.4963 15 15 14.4963 15 13.875V11.625Z" fill="#FDCA40"/>
</svg>
