<svg width="24" height="24" viewBox="0 0 24 24" fill="none" xmlns="http://www.w3.org/2000/svg">
<path fill-rule="evenodd" clip-rule="evenodd" d="M21.9452 12C21.9452 17.4925 17.4925 21.9452 12 21.9452C6.50741 21.9452 2.05479 17.4925 2.05479 12C2.05479 6.50741 6.50741 2.05479 12 2.05479C17.4925 2.05479 21.9452 6.50741 21.9452 12ZM24 12C24 18.6275 18.6275 24 12 24C5.37258 24 0 18.6275 0 12C0 5.37258 5.37258 0 12 0C18.6275 0 24 5.37258 24 12ZM18.0288 9.9877C18.43 9.58644 18.43 8.93589 18.0288 8.53471C17.6276 8.13348 16.977 8.13348 16.5759 8.53471L10.4365 14.674L7.44164 11.5294C7.05032 11.1185 6.4 11.1026 5.98912 11.4939C5.57823 11.8853 5.56237 12.5356 5.95369 12.9464L9.28019 16.4393C9.89457 17.0844 10.9196 17.0969 11.5495 16.467L18.0288 9.9877Z" fill="#51CB20"/>
</svg>
