<svg width="24" height="24" viewBox="0 0 24 24" fill="none" xmlns="http://www.w3.org/2000/svg">
<circle cx="12" cy="12" r="11.5" fill="#C3C0C1" stroke="#676767"/>
<path fill-rule="evenodd" clip-rule="evenodd" d="M6.97608 8.50011C6.97608 6.32138 9.19153 4.55566 11.9237 4.55566C14.6558 4.55566 16.8713 6.32138 16.8713 8.50011C16.8713 10.6788 14.6558 12.4446 11.9237 12.4446C9.19153 12.4446 6.97608 10.6788 6.97608 8.50011ZM11.9237 5.95566C10.1604 5.95566 8.73154 7.09512 8.73154 8.50011C8.73154 9.9051 10.1604 11.0446 11.9237 11.0446C13.687 11.0446 15.1158 9.9051 15.1158 8.50011C15.1158 7.09512 13.687 5.95566 11.9237 5.95566Z" fill="black"/>
<path fill-rule="evenodd" clip-rule="evenodd" d="M6.46187 14.285C7.88953 13.4913 9.84369 12.9222 12 12.9222C14.1563 12.9222 16.1105 13.4913 17.5381 14.285C18.913 15.0493 20 16.1449 20 17.2722C20 17.8813 19.6772 18.3851 19.1558 18.7664C18.6598 19.1292 17.9989 19.3731 17.2904 19.5441C15.8738 19.8859 13.9873 20 12 20C10.0127 20 8.12624 19.8859 6.70964 19.5441C6.00107 19.3731 5.34019 19.1292 4.84418 18.7664C4.32284 18.3851 4 17.8813 4 17.2722C4 16.1449 5.08704 15.0493 6.46187 14.285ZM12 14.3222C10.2228 14.3222 8.61583 14.7941 7.46572 15.4335C6.85923 15.7707 6.43395 16.1203 6.15919 16.4388C5.88655 16.7549 5.75546 17.0484 5.75546 17.2722C5.75546 17.3549 5.77219 17.4348 5.8181 17.514C5.86361 17.5925 5.93412 17.664 6.03068 17.7346C6.25551 17.899 6.63767 18.0641 7.21795 18.2041C8.37913 18.4842 10.0539 18.6 12 18.6C13.9461 18.6 15.6209 18.4842 16.7821 18.2041C17.3623 18.0641 17.7445 17.899 17.9693 17.7346C18.0659 17.664 18.1364 17.5925 18.1819 17.514C18.2278 17.4348 18.2445 17.3549 18.2445 17.2722C18.2445 17.0484 18.1135 16.7549 17.8408 16.4388C17.5661 16.1203 17.1408 15.7707 16.5343 15.4335C15.3842 14.7941 13.7772 14.3222 12 14.3222Z" fill="black"/>
</svg>
