<svg width="32" height="32" viewBox="0 0 32 32" fill="none" xmlns="http://www.w3.org/2000/svg">
<circle cx="16" cy="16" r="16" fill="#51CB20"/>
<path fill-rule="evenodd" clip-rule="evenodd" d="M10.6993 10.4802C10.6993 7.52762 13.0865 5.13477 16.0306 5.13477C18.9746 5.13477 21.3618 7.52762 21.3618 10.4802C21.3618 13.4327 18.9746 15.8256 16.0306 15.8256C13.0865 15.8256 10.6993 13.4327 10.6993 10.4802ZM16.0306 7.03201C14.1305 7.03201 12.5909 8.57617 12.5909 10.4802C12.5909 12.3842 14.1305 13.9283 16.0306 13.9283C17.9306 13.9283 19.4703 12.3842 19.4703 10.4802C19.4703 8.57617 17.9306 7.03201 16.0306 7.03201Z" fill="white"/>
<path fill-rule="evenodd" clip-rule="evenodd" d="M10.0629 19.0727C11.6013 17.9972 13.707 17.2259 16.0306 17.2259C18.3541 17.2259 20.4598 17.9972 21.9982 19.0727C23.4796 20.1085 24.651 21.5932 24.651 23.1209C24.651 23.9464 24.3031 24.6291 23.7413 25.1458C23.2068 25.6374 22.4947 25.968 21.7312 26.1997C20.2047 26.6628 18.172 26.8175 16.0306 26.8175C13.8891 26.8175 11.8564 26.6628 10.3299 26.1997C9.56641 25.968 8.85427 25.6374 8.3198 25.1458C7.75803 24.6291 7.41016 23.9464 7.41016 23.1209C7.41016 21.5932 8.5815 20.1085 10.0629 19.0727ZM16.0306 19.1232C14.1155 19.1232 12.3839 19.7627 11.1446 20.6292C10.4911 21.0861 10.0329 21.5598 9.73679 21.9915C9.44301 22.4198 9.30175 22.8176 9.30175 23.1209C9.30175 23.233 9.31978 23.3412 9.36925 23.4485C9.41828 23.5549 9.49427 23.6518 9.59832 23.7475C9.84058 23.9704 10.2524 24.194 10.8777 24.3837C12.1289 24.7634 13.9335 24.9203 16.0306 24.9203C18.1276 24.9203 19.9322 24.7634 21.1835 24.3837C21.8087 24.194 22.2205 23.9704 22.4628 23.7475C22.5668 23.6518 22.6428 23.5549 22.6919 23.4485C22.7413 23.3412 22.7594 23.233 22.7594 23.1209C22.7594 22.8176 22.6181 22.4198 22.3243 21.9915C22.0283 21.5598 21.57 21.0861 20.9165 20.6292C19.6772 19.7627 17.9456 19.1232 16.0306 19.1232Z" fill="white"/>
</svg>
