<svg width="16" height="16" viewBox="0 0 16 16" fill="none" xmlns="http://www.w3.org/2000/svg">
<path fill-rule="evenodd" clip-rule="evenodd" d="M4.62828 4.28669C4.62828 2.67319 5.93627 1.36519 7.54981 1.36519C9.1633 1.36519 10.4713 2.67319 10.4713 4.28669C10.4713 5.90018 9.1633 7.20819 7.54981 7.20819C5.93627 7.20819 4.62828 5.90018 4.62828 4.28669ZM7.54981 0C5.1823 0 3.2631 1.91921 3.2631 4.28669C3.2631 5.66291 3.91162 6.88764 4.91973 7.67197C2.79504 8.44085 1.09972 10.1053 0.28879 12.2083L0.276689 12.2397C0.184882 12.4775 0.0893296 12.725 0.0396783 12.9762C-0.0180669 13.2683 -0.0131212 13.5488 0.0567322 13.8709C0.119386 14.1597 0.274308 14.4509 0.430545 14.6786C0.586788 14.9063 0.802788 15.1557 1.04973 15.318C1.63322 15.7017 2.24297 15.7008 2.95897 15.6998C2.99634 15.6997 3.03401 15.6997 3.07197 15.6997H12.0822C12.1202 15.6997 12.1578 15.6997 12.1952 15.6998C12.9112 15.7008 13.521 15.7017 14.1045 15.318C14.3514 15.1557 14.5674 14.9063 14.7237 14.6786C14.8799 14.4509 15.0348 14.1597 15.0974 13.8709C15.1673 13.5488 15.1723 13.2683 15.1145 12.9762C15.0648 12.725 14.9693 12.4775 14.8775 12.2397L14.8654 12.2083C14.0497 10.093 12.3392 8.42135 10.197 7.65854C11.1953 6.87372 11.8365 5.6551 11.8365 4.28669C11.8365 1.91921 9.91726 0 7.54981 0ZM1.56255 12.6995C2.49372 10.2847 4.8364 8.57338 7.57711 8.57338C10.3178 8.57338 12.6605 10.2847 13.5916 12.6995C13.7001 12.9808 13.7511 13.119 13.7752 13.241C13.7934 13.333 13.7974 13.4243 13.7633 13.5814C13.7526 13.6307 13.7016 13.7552 13.598 13.9062C13.4943 14.0572 13.3965 14.1496 13.3544 14.1773C13.1489 14.3124 12.9669 14.3345 12.0822 14.3345H3.07197C2.18724 14.3345 2.00525 14.3124 1.79977 14.1773C1.75766 14.1496 1.65985 14.0572 1.55622 13.9062C1.4526 13.7552 1.40158 13.6307 1.39089 13.5814C1.3568 13.4243 1.36074 13.333 1.37894 13.241C1.40306 13.119 1.45409 12.9808 1.56255 12.6995Z" fill="#F5CC5C"/>
</svg>
