<svg width="16" height="16" viewBox="0 0 16 16" fill="none" xmlns="http://www.w3.org/2000/svg">
<path d="M7.99967 8.00003C8.92265 8.00003 9.82491 7.76544 10.5923 7.32591C11.3598 6.88638 11.9579 6.26166 12.3111 5.53076C12.6643 4.79985 12.7567 3.99558 12.5767 3.21965C12.3966 2.44373 11.9522 1.73099 11.2995 1.17158C10.6469 0.612167 9.81534 0.231202 8.9101 0.076861C8.00485 -0.0774805 7.06654 0.00173314 6.21382 0.304485C5.3611 0.607237 4.63226 1.11993 4.11948 1.77773C3.6067 2.43553 3.33301 3.20889 3.33301 4.00002C3.33301 5.06089 3.82467 6.07831 4.69984 6.82845C5.57501 7.5786 6.762 8.00003 7.99967 8.00003ZM7.99967 1.14286C8.65895 1.14286 9.30341 1.31043 9.85157 1.62438C10.3997 1.93833 10.827 2.38455 11.0793 2.90663C11.3316 3.42871 11.3976 4.00319 11.269 4.55742C11.1403 5.11165 10.8229 5.62075 10.3567 6.02033C9.89052 6.41991 9.29658 6.69203 8.64998 6.80227C8.00337 6.91252 7.33315 6.85593 6.72406 6.63968C6.11498 6.42343 5.59438 6.05722 5.22811 5.58737C4.86184 5.11751 4.66634 4.56511 4.66634 4.00002C4.66634 3.24225 5.01753 2.51552 5.64265 1.9797C6.26777 1.44388 7.11562 1.14286 7.99967 1.14286Z" fill="#FDCA40"/>
<path d="M8.66667 9.14258H7.33333C5.38841 9.14258 3.52315 9.80482 2.14788 10.9836C0.772617 12.1624 0 13.7612 0 15.4283C0 15.5799 0.070238 15.7252 0.195262 15.8324C0.320287 15.9395 0.489856 15.9997 0.666667 15.9997H15.3333C15.5101 15.9997 15.6797 15.9395 15.8047 15.8324C15.9298 15.7252 16 15.5799 16 15.4283C16 13.7612 15.2274 12.1624 13.8521 10.9836C12.4769 9.80482 10.6116 9.14258 8.66667 9.14258ZM1.37333 14.8569C1.53726 13.6001 2.23567 12.4392 3.33512 11.5959C4.43457 10.7526 5.85796 10.286 7.33333 10.2854H8.66667C10.142 10.286 11.5654 10.7526 12.6649 11.5959C13.7643 12.4392 14.4627 13.6001 14.6267 14.8569H1.37333Z" fill="#FDCA40"/>
</svg>
