<svg width="24" height="24" viewBox="0 0 24 24" fill="none" xmlns="http://www.w3.org/2000/svg">
<circle cx="12" cy="12" r="11.534" fill="#ACF7A5" stroke="#068A33" stroke-width="0.932039"/>
<g clip-path="url(#clip0_196_5)">
<path fill-rule="evenodd" clip-rule="evenodd" d="M7.90046 7.74423C7.90046 5.46141 9.74622 3.61133 12.0224 3.61133C14.2987 3.61133 16.1444 5.46141 16.1444 7.74423C16.1444 10.027 14.2987 11.8771 12.0224 11.8771C9.74622 11.8771 7.90046 10.027 7.90046 7.74423ZM12.0224 5.07822C10.5534 5.07822 9.36299 6.27211 9.36299 7.74423C9.36299 9.21634 10.5534 10.4102 12.0224 10.4102C13.4915 10.4102 14.6819 9.21634 14.6819 7.74423C14.6819 6.27211 13.4915 5.07822 12.0224 5.07822Z" fill="black"/>
<path fill-rule="evenodd" clip-rule="evenodd" d="M7.40847 14.3877C8.5979 13.5561 10.226 12.9598 12.0224 12.9598C13.8189 12.9598 15.447 13.5561 16.6364 14.3877C17.7818 15.1885 18.6875 16.3364 18.6875 17.5177C18.6875 18.1559 18.4185 18.6837 17.9842 19.0832C17.5709 19.4633 17.0203 19.7189 16.43 19.8981C15.2498 20.2562 13.6781 20.3758 12.0224 20.3758C10.3668 20.3758 8.79511 20.2562 7.6149 19.8981C7.02457 19.7189 6.47397 19.4633 6.06073 19.0832C5.62639 18.6837 5.35742 18.1559 5.35742 17.5177C5.35742 16.3364 6.26307 15.1885 7.40847 14.3877ZM12.0224 14.4267C10.5418 14.4267 9.203 14.9212 8.24481 15.5911C7.73953 15.9444 7.38521 16.3107 7.1563 16.6444C6.92916 16.9756 6.81994 17.2831 6.81994 17.5177C6.81994 17.6043 6.83388 17.688 6.87213 17.771C6.91004 17.8532 6.96879 17.9281 7.04924 18.0021C7.23655 18.1744 7.55494 18.3473 8.03839 18.494C9.0058 18.7875 10.4011 18.9089 12.0224 18.9089C13.6438 18.9089 15.0391 18.7875 16.0065 18.494C16.49 18.3473 16.8083 18.1744 16.9957 18.0021C17.0761 17.9281 17.1348 17.8532 17.1728 17.771C17.211 17.688 17.2249 17.6043 17.2249 17.5177C17.2249 17.2831 17.1157 16.9756 16.8886 16.6444C16.6597 16.3107 16.3054 15.9444 15.8001 15.5911C14.8419 14.9212 13.5031 14.4267 12.0224 14.4267Z" fill="black"/>
</g>
<defs>
<clipPath id="clip0_196_5">
<rect width="17.0097" height="17.0097" fill="white" transform="translate(3.49512 3.49512)"/>
</clipPath>
</defs>
</svg>
