<svg width="20" height="20" viewBox="0 0 20 20" fill="none" xmlns="http://www.w3.org/2000/svg">
<path fill-rule="evenodd" clip-rule="evenodd" d="M5.18029 5.98171C5.18029 3.29757 7.35053 1.12225 10.0269 1.12225C12.7033 1.12225 14.8735 3.29757 14.8735 5.98171C14.8735 8.66585 12.7033 10.8412 10.0269 10.8412C7.35053 10.8412 5.18029 8.66585 5.18029 5.98171ZM10.0269 2.84702C8.29959 2.84702 6.89992 4.2508 6.89992 5.98171C6.89992 7.71262 8.29959 9.1164 10.0269 9.1164C11.7542 9.1164 13.1539 7.71262 13.1539 5.98171C13.1539 4.2508 11.7542 2.84702 10.0269 2.84702Z" fill="#F5D16C"/>
<path fill-rule="evenodd" clip-rule="evenodd" d="M4.60181 12.7931C6.00033 11.8154 7.91461 11.1142 10.0269 11.1142C12.1392 11.1142 14.0535 11.8154 15.452 12.7931C16.7988 13.7347 17.8636 15.0844 17.8636 16.4733C17.8636 17.2237 17.5474 17.8443 17.0367 18.3141C16.5508 18.761 15.9034 19.0616 15.2093 19.2722C13.8216 19.6932 11.9737 19.8339 10.0269 19.8339C8.08016 19.8339 6.23222 19.6932 4.84452 19.2722C4.15042 19.0616 3.50302 18.761 3.01714 18.3141C2.50643 17.8443 2.19019 17.2237 2.19019 16.4733C2.19019 15.0844 3.25504 13.7347 4.60181 12.7931ZM10.0269 12.839C8.28599 12.839 6.71181 13.4204 5.58518 14.2081C4.99106 14.6234 4.57446 15.0541 4.30531 15.4465C4.03823 15.8359 3.90982 16.1975 3.90982 16.4733C3.90982 16.5752 3.9262 16.6736 3.97118 16.7711C4.01576 16.8678 4.08483 16.9559 4.17943 17.043C4.39966 17.2455 4.77402 17.4488 5.34246 17.6213C6.47994 17.9664 8.12048 18.1091 10.0269 18.1091C11.9333 18.1091 13.5739 17.9664 14.7114 17.6213C15.2798 17.4488 15.6542 17.2455 15.8744 17.043C15.969 16.9559 16.0381 16.8678 16.0826 16.7711C16.1276 16.6736 16.144 16.5752 16.144 16.4733C16.144 16.1975 16.0156 15.8359 15.7485 15.4465C15.4794 15.0541 15.0628 14.6234 14.4687 14.2081C13.342 13.4204 11.7678 12.839 10.0269 12.839Z" fill="#F5D16C"/>
</svg>
