<svg width="20" height="20" viewBox="0 0 20 20" fill="none" xmlns="http://www.w3.org/2000/svg">
<path fill-rule="evenodd" clip-rule="evenodd" d="M0.833984 8.33301C0.833984 4.19087 4.19185 0.833008 8.33398 0.833008C12.4761 0.833008 15.834 4.19087 15.834 8.33301C15.834 10.1039 15.2203 11.7314 14.1939 13.0144L19.5125 18.333L18.334 19.5115L13.0154 14.1929C11.7323 15.2193 10.1048 15.833 8.33398 15.833C4.19185 15.833 0.833984 12.4751 0.833984 8.33301ZM8.33398 2.49967C5.11232 2.49967 2.50065 5.11135 2.50065 8.33301C2.50065 11.5547 5.11232 14.1663 8.33398 14.1663C11.5556 14.1663 14.1673 11.5547 14.1673 8.33301C14.1673 5.11135 11.5556 2.49967 8.33398 2.49967Z" fill="#292D32"/>
</svg>
