<svg width="292" height="292" viewBox="0 0 292 292" fill="none" xmlns="http://www.w3.org/2000/svg">
<path d="M207.163 170.537C193.724 170.537 182.829 159.744 182.829 146.431C182.829 133.117 193.724 122.324 207.163 122.324C220.602 122.324 231.496 133.117 231.496 146.431C231.496 159.744 220.602 170.537 207.163 170.537Z" fill="#F5CC5C"/>
<path d="M122.324 146.431C122.324 159.744 133.218 170.537 146.657 170.537C160.096 170.537 170.99 159.744 170.99 146.431C170.99 133.117 160.096 122.324 146.657 122.324C133.218 122.324 122.324 133.117 122.324 146.431Z" fill="#F5CC5C"/>
<path d="M86.153 170.537C72.7141 170.537 61.8197 159.744 61.8197 146.431C61.8197 133.117 72.7141 122.324 86.153 122.324C99.5919 122.324 110.486 133.117 110.486 146.431C110.486 159.744 99.5919 170.537 86.153 170.537Z" fill="#F5CC5C"/>
<path fill-rule="evenodd" clip-rule="evenodd" d="M0 146V207.294C0 237.256 0 252.237 5.92346 263.64C10.9151 273.25 18.7502 281.085 28.3596 286.077C39.7627 292 54.7439 292 84.7063 292H146C226.634 292 292 226.634 292 146C292 65.3664 226.634 0 146 0C65.3664 0 0 65.3664 0 146ZM146 267C212.826 267 267 212.826 267 146C267 79.1735 212.826 25 146 25C79.1735 25 25 79.1735 25 146V207.294C25 222.695 25.0201 232.716 25.6547 240.358C26.2644 247.7 27.3097 250.578 28.1088 252.116C30.7286 257.159 34.8406 261.271 39.8839 263.891C41.4223 264.69 44.3001 265.736 51.6422 266.345C59.2836 266.98 69.3055 267 84.7063 267H146Z" fill="#F5CC5C"/>
</svg>
