<svg width="20" height="20" viewBox="0 0 20 20" fill="none" xmlns="http://www.w3.org/2000/svg">
<g clip-path="url(#clip0_1_178)">
<path fill-rule="evenodd" clip-rule="evenodd" d="M9.96587 18.2253C14.5274 18.2253 18.2253 14.5274 18.2253 9.96587C18.2253 5.40433 14.5274 1.70648 9.96587 1.70648C5.40433 1.70648 1.70648 5.40433 1.70648 9.96587V14.1498C1.70648 15.201 1.70786 15.885 1.75117 16.4067C1.79279 16.9078 1.86414 17.1043 1.91869 17.2093C2.09752 17.5535 2.3782 17.8342 2.72245 18.013C2.82746 18.0676 3.0239 18.139 3.52506 18.1805C4.04666 18.2239 4.73075 18.2253 5.782 18.2253H9.96587ZM0 9.96587V14.1498C0 16.1949 0 17.2175 0.404332 17.9959C0.745058 18.6519 1.27988 19.1867 1.93581 19.5274C2.71418 19.9317 3.73678 19.9317 5.782 19.9317H9.96587C15.4699 19.9317 19.9317 15.4699 19.9317 9.96587C19.9317 4.46187 15.4699 0 9.96587 0C4.46187 0 0 4.46187 0 9.96587ZM14.1408 11.6407C13.2235 11.6407 12.4798 10.904 12.4798 9.99529C12.4798 9.08648 13.2235 8.34976 14.1408 8.34976C15.0582 8.34976 15.8018 9.08648 15.8018 9.99529C15.8018 10.904 15.0582 11.6407 14.1408 11.6407ZM8.34976 9.99529C8.34976 10.904 9.09338 11.6407 10.0107 11.6407C10.9281 11.6407 11.6717 10.904 11.6717 9.99529C11.6717 9.08648 10.9281 8.34976 10.0107 8.34976C9.09338 8.34976 8.34976 9.08648 8.34976 9.99529ZM5.88075 11.6407C4.96342 11.6407 4.21977 10.904 4.21977 9.99529C4.21977 9.08648 4.96342 8.34976 5.88075 8.34976C6.79808 8.34976 7.54171 9.08648 7.54171 9.99529C7.54171 10.904 6.79808 11.6407 5.88075 11.6407Z" fill="#F5CC5C"/>
</g>
<defs>
<clipPath id="clip0_1_178">
<rect width="20" height="20" fill="white"/>
</clipPath>
</defs>
</svg>
