<svg width="16" height="16" viewBox="0 0 16 16" fill="none" xmlns="http://www.w3.org/2000/svg">
<path d="M4.50717 7.18302H5.95096V8.61962H4.50717V7.18302Z" fill="#FDCA40"/>
<path d="M7.38038 7.18302H8.82416V8.61962H7.38038V7.18302Z" fill="#FDCA40"/>
<path d="M10.2536 7.18302H11.6974V8.61962H10.2536V7.18302Z" fill="#FDCA40"/>
<path fill-rule="evenodd" clip-rule="evenodd" d="M0.197357 7.90132C0.197357 3.53754 3.7349 0 8.09868 0C12.4625 0 16 3.53754 16 7.90132C16 12.2651 12.4625 15.8026 8.09868 15.8026C6.89716 15.8026 5.75658 15.534 4.73533 15.0529L0 16L0.947065 11.2647C0.466022 10.2434 0.197357 9.10284 0.197357 7.90132ZM8.09868 1.4366C4.52831 1.4366 1.63396 4.33096 1.63396 7.90132C1.63396 8.96092 1.88833 9.95902 2.33871 10.8399L2.45255 11.0625L1.83132 14.1687L4.93748 13.5474L5.16014 13.6613C6.04098 14.1117 7.03908 14.366 8.09868 14.366C11.669 14.366 14.5634 11.4717 14.5634 7.90132C14.5634 4.33096 11.669 1.4366 8.09868 1.4366Z" fill="#FDCA40"/>
</svg>
