<svg width="16" height="16" viewBox="0 0 16 16" fill="none" xmlns="http://www.w3.org/2000/svg">
<g clip-path="url(#clip0_1_699)">
<path fill-rule="evenodd" clip-rule="evenodd" d="M8.0273 14.5802C4.3781 14.5802 1.4198 11.6219 1.4198 7.9727C1.4198 4.32347 4.3781 1.36519 8.0273 1.36519C11.6765 1.36519 14.6348 4.32347 14.6348 7.9727V11.3198C14.6348 12.1608 14.6337 12.708 14.5991 13.1254C14.5658 13.5263 14.5087 13.6834 14.465 13.7674C14.322 14.0428 14.0974 14.2674 13.822 14.4104C13.738 14.4541 13.5809 14.5112 13.1799 14.5444C12.7627 14.5791 12.2154 14.5802 11.3744 14.5802H8.0273ZM16 7.9727V11.3198C16 12.956 16 13.774 15.6765 14.3967C15.404 14.9215 14.9761 15.3494 14.4514 15.622C13.8287 15.9454 13.0106 15.9454 11.3744 15.9454H8.0273C3.62408 15.9454 0.0546083 12.3759 0.0546083 7.9727C0.0546083 3.5695 3.62408 0 8.0273 0C12.4305 0 16 3.5695 16 7.9727ZM4.68735 9.3126C5.42122 9.3126 6.01616 8.72322 6.01616 7.99623C6.01616 7.26919 5.42122 6.67981 4.68735 6.67981C3.95347 6.67981 3.35858 7.26919 3.35858 7.99623C3.35858 8.72322 3.95347 9.3126 4.68735 9.3126ZM9.32019 7.99623C9.32019 8.72322 8.7253 9.3126 7.99143 9.3126C7.25756 9.3126 6.66266 8.72322 6.66266 7.99623C6.66266 7.26919 7.25756 6.67981 7.99143 6.67981C8.7253 6.67981 9.32019 7.26919 9.32019 7.99623ZM11.2954 9.3126C12.0293 9.3126 12.6242 8.72322 12.6242 7.99623C12.6242 7.26919 12.0293 6.67981 11.2954 6.67981C10.5615 6.67981 9.96664 7.26919 9.96664 7.99623C9.96664 8.72322 10.5615 9.3126 11.2954 9.3126Z" fill="#F5CC5C"/>
</g>
<defs>
<clipPath id="clip0_1_699">
<rect width="16" height="16" fill="white" transform="matrix(-1 0 0 1 16 0)"/>
</clipPath>
</defs>
</svg>
