<svg width="24" height="24" viewBox="0 0 24 24" fill="none" xmlns="http://www.w3.org/2000/svg">
<circle cx="12" cy="12" r="11.5" fill="#E7F68E" stroke="#FDCA40"/>
<path fill-rule="evenodd" clip-rule="evenodd" d="M4 12.1826C4 11.6152 4.35599 11.1553 4.79513 11.1553H6.35858C6.79772 11.1553 7.15372 11.6152 7.15372 12.1826V12.381L8.71741 13.1676C9.28013 13.4506 9.87871 13.5958 10.4826 13.5958H10.5479C11.0199 13.5958 11.4889 13.499 11.9374 13.3088L12.1652 13.2122C13.2396 12.7568 14.3738 13.4041 14.8663 14.6405C15.4474 14.4467 15.9719 14.2729 16.3642 14.1447C16.5744 14.076 16.7482 14.02 16.8728 13.9809C16.9347 13.9615 16.9869 13.9455 17.0262 13.9341C17.0342 13.9318 17.0423 13.9295 17.0502 13.9272C17.0806 13.9056 17.1233 13.8732 17.1784 13.8297C17.3068 13.7282 17.475 13.5876 17.6501 13.4377C18.213 12.9561 18.9638 13.0023 19.4831 13.5852C20.1443 14.3274 20.1757 15.6401 19.5512 16.4337L19.2479 16.8192C18.9934 17.1426 18.6809 17.3795 18.3383 17.5088L13.4864 19.3396C12.3956 19.7512 11.2432 19.8099 10.1307 19.5104L7.15372 18.7091V18.9727C7.15372 19.5401 6.79772 20 6.35858 20H4.79513C4.35599 20 4 19.5401 4 18.9727V12.1826ZM7.15372 17.2101V13.9559L8.30531 14.5351C8.9994 14.8843 9.73773 15.0634 10.4826 15.0634H10.5479C11.1402 15.0634 11.7288 14.9418 12.2916 14.7032L12.5194 14.6067C12.9609 14.4195 13.4229 14.6086 13.7066 15.0284C12.7191 15.3595 11.7079 15.7004 10.9713 15.9494C10.6679 16.0519 10.4862 16.4529 10.5656 16.845C10.645 17.237 10.9554 17.4717 11.2589 17.3691C12.2567 17.0318 13.7587 16.5259 15.0218 16.1044C15.6534 15.8936 16.2245 15.7041 16.6426 15.5675C16.852 15.4991 17.0215 15.4445 17.1407 15.4071C17.2007 15.3883 17.2455 15.3746 17.2753 15.3659C17.2816 15.3641 17.2867 15.3627 17.2906 15.3616C17.3374 15.3535 17.3722 15.3404 17.3878 15.3343C17.42 15.3219 17.4471 15.308 17.4657 15.2978C17.5032 15.2773 17.5392 15.2537 17.5685 15.2336C17.6287 15.1921 17.6991 15.1385 17.7711 15.0816C17.917 14.9663 18.0985 14.8143 18.2774 14.6612C18.4254 14.5346 18.6138 14.5535 18.7381 14.693C18.8993 14.874 18.9069 15.194 18.7547 15.3874L18.4513 15.773C18.3306 15.9264 18.1824 16.0387 18.0198 16.1001L13.168 17.9309C12.256 18.275 11.2925 18.3241 10.3623 18.0737L7.15372 17.2101ZM5.13591 12.6228V18.5324H6.01781V12.6228H5.13591ZM17.3012 15.3587C17.3145 15.3553 17.3113 15.3568 17.298 15.3595L17.3012 15.3587Z" fill="black"/>
<path fill-rule="evenodd" clip-rule="evenodd" d="M8.91398 5.46757V11.508C8.91398 11.9133 8.65969 12.2418 8.34602 12.2418C8.03235 12.2418 7.77807 11.9133 7.77807 11.508V5.0273C7.77807 4.45994 8.13406 4 8.5732 4H16.0184C16.4575 4 16.8135 4.45994 16.8135 5.0273V12.8288C16.8135 13.2341 16.5592 13.5626 16.2455 13.5626C15.9319 13.5626 15.6776 13.2341 15.6776 12.8288V5.46757H14.0717V8.89564C14.0717 9.69923 13.3897 10.1917 12.86 9.77065L12.3205 9.34192L11.8066 9.75932C11.277 10.1894 10.5883 9.69766 10.5883 8.88959V5.46757H8.91398ZM11.7242 5.46757V8.0928L11.8954 7.95374C12.1517 7.74557 12.4773 7.74352 12.7351 7.94846L12.9358 8.10792V5.46757H11.7242Z" fill="black"/>
</svg>
