<svg width="27" height="27" viewBox="0 0 27 27" fill="none" xmlns="http://www.w3.org/2000/svg">
<circle cx="13.5" cy="13.5" r="13.5" fill="#615D5D"/>
<path d="M21.8633 18.7399L20.5394 14.9086C20.5379 14.9047 20.5365 14.9007 20.5349 14.8968C20.1924 14.0154 19.5454 13.2503 18.709 12.7167C19.3883 12.2398 19.533 11.7436 19.533 11.4082C19.533 11.116 19.4279 10.8342 19.2204 10.5703C19.2202 10.5701 19.2206 10.5705 19.2204 10.5703L15.7761 6.04181C15.2551 5.38008 14.4407 5 13.5447 5C12.6622 5 11.8574 5.37005 11.3347 6.01688L7.79477 10.5513C7.57732 10.8204 7.46697 11.1087 7.46697 11.4082C7.46697 11.7454 7.61275 12.2407 8.2909 12.7167C7.45451 13.2503 6.8078 14.015 6.46505 14.8969C6.46352 14.9008 6.46206 14.9047 6.46063 14.9086L5.13669 18.74C4.56008 20.3509 5.87959 22 7.74468 22C8.09503 22 18.7654 22 19.2554 22C21.1208 22 22.4398 20.3506 21.8633 18.7399ZM12.219 6.60623C12.5326 6.21809 13.0155 5.99609 13.545 5.99609C13.5486 5.99609 13.5521 5.99609 13.5556 5.99613C14.0893 5.99912 14.5735 6.22696 14.8839 6.62118L16.8886 9.32145C15.9206 9.0634 14.752 8.91797 13.5 8.91797C12.6895 8.91797 11.9131 8.97939 11.203 9.09278C11.2005 9.09321 11.198 9.09355 11.1955 9.09401C10.8308 9.15248 10.4839 9.22477 10.1588 9.30963L12.219 6.60623ZM15.1435 10.0103V10.484C15.1022 11.2823 14.3823 11.9062 13.5 11.9062C12.6177 11.9062 11.8978 11.2823 11.8565 10.484V10.0074C12.3568 9.94823 12.906 9.91406 13.5 9.91406C14.0866 9.91406 14.6374 9.94916 15.1435 10.0103ZM8.73066 11.0821C9.03922 10.7584 9.74106 10.4206 10.7596 10.192V10.4949C10.7596 10.5016 10.7597 10.5084 10.7601 10.5152C10.8202 11.8538 12.0238 12.9023 13.5 12.9023C14.9762 12.9023 16.1798 11.8538 16.24 10.5152C16.2403 10.5084 16.2405 10.5016 16.2405 10.4949V10.197C17.2492 10.4243 17.97 10.7594 18.279 11.0923C18.3619 11.1817 18.4361 11.292 18.4361 11.4082C18.4361 11.6269 18.1686 11.8408 18.0091 11.9489C18.007 11.9503 18.0051 11.952 18.003 11.9534C18.0009 11.9549 17.9986 11.9561 17.9965 11.9576L13.5638 15.1465C13.415 15.0425 9.13282 12.0471 9.0288 11.9743C9.02671 11.9729 9.02452 11.9718 9.0224 11.9703C9.02024 11.9689 9.0183 11.9672 9.01611 11.9657C8.84722 11.8545 8.56389 11.6342 8.56389 11.4082C8.56389 11.2877 8.64356 11.1734 8.73066 11.0821ZM8.56389 16.7871V21.0039H7.74468C6.62542 21.0039 5.83393 20.0143 6.17993 19.0479L7.50164 15.2227C7.80808 14.4387 8.42367 13.7744 9.2152 13.3621L11.9756 15.293H10.2093C9.302 15.293 8.56389 15.9632 8.56389 16.7871ZM17.3392 21.0039H9.6608V16.7871C9.6608 16.5125 9.90684 16.2891 10.2093 16.2891H16.7907C17.0932 16.2891 17.3392 16.5125 17.3392 16.7871V21.0039ZM19.2553 21.0039H18.4361V16.7871C18.4361 15.9632 17.698 15.293 16.7907 15.293H15.1268L17.8004 13.3696C18.5924 13.7834 19.1893 14.4316 19.4983 15.2226L20.8201 19.0479C21.1661 20.0144 20.3744 21.0039 19.2553 21.0039Z" fill="white"/>
<path d="M13 18H14.1333V18.9961H13V18Z" fill="white"/>
</svg>
