<svg width="24" height="24" viewBox="0 0 24 24" fill="none" xmlns="http://www.w3.org/2000/svg">
<circle cx="12" cy="12" r="11.534" fill="#E7F68E" stroke="#FDCA40" stroke-width="0.932039"/>
<g clip-path="url(#clip0_200_2)">
<path fill-rule="evenodd" clip-rule="evenodd" d="M4.19434 13.9363C4.19434 13.537 4.5454 13.2134 4.97846 13.2134H6.52026C6.95331 13.2134 7.30438 13.537 7.30438 13.9363V14.076L8.84641 14.6294C9.40134 14.8286 9.99164 14.9308 10.5871 14.9308H10.6515C11.117 14.9308 11.5796 14.8626 12.0219 14.7288L12.2465 14.6609C13.306 14.3404 14.4245 14.7959 14.9102 15.6659C15.4832 15.5296 16.0004 15.4072 16.3873 15.3171C16.5947 15.2687 16.766 15.2293 16.8888 15.2018C16.9499 15.1881 17.0013 15.1769 17.0402 15.1688C17.048 15.1672 17.056 15.1656 17.0639 15.164C17.0938 15.1488 17.1359 15.126 17.1902 15.0954C17.3169 15.024 17.4827 14.925 17.6554 14.8195C18.2105 14.4806 18.9509 14.5131 19.463 14.9233C20.1151 15.4456 20.146 16.3694 19.5302 16.9278L19.231 17.1991C18.9801 17.4267 18.6719 17.5934 18.3341 17.6843L13.5494 18.9727C12.4737 19.2623 11.3372 19.3036 10.2401 19.0929L7.30438 18.529V18.7145C7.30438 19.1137 6.95331 19.4374 6.52026 19.4374H4.97846C4.5454 19.4374 4.19434 19.1137 4.19434 18.7145V13.9363ZM7.30438 17.4741V15.1842L8.44003 15.5918C9.12451 15.8375 9.85261 15.9635 10.5871 15.9635H10.6515C11.2357 15.9635 11.8161 15.878 12.3711 15.7101L12.5957 15.6421C13.0312 15.5104 13.4867 15.6435 13.7665 15.9389C12.7927 16.1719 11.7955 16.4118 11.0691 16.587C10.7699 16.6592 10.5908 16.9413 10.6691 17.2172C10.7474 17.4931 11.0534 17.6583 11.3527 17.5861C12.3367 17.3487 13.8179 16.9927 15.0635 16.696C15.6864 16.5477 16.2495 16.4144 16.6619 16.3183C16.8683 16.2701 17.0355 16.2317 17.1531 16.2054C17.2122 16.1921 17.2564 16.1825 17.2858 16.1764C17.292 16.1751 17.297 16.1741 17.3009 16.1733C17.347 16.1676 17.3813 16.1585 17.3968 16.1542C17.4285 16.1454 17.4552 16.1356 17.4736 16.1285C17.5105 16.1141 17.546 16.0975 17.5749 16.0833C17.6343 16.0541 17.7038 16.0164 17.7748 15.9764C17.9187 15.8952 18.0976 15.7882 18.274 15.6805C18.42 15.5914 18.6057 15.6047 18.7283 15.7029C18.8873 15.8302 18.8948 16.0554 18.7447 16.1915L18.4455 16.4628C18.3265 16.5708 18.1803 16.6499 18.02 16.693L13.2353 17.9814C12.336 18.2235 11.3858 18.258 10.4686 18.0819L7.30438 17.4741ZM5.31451 14.2461V18.4047H6.1842V14.2461H5.31451ZM17.3114 16.1713C17.3245 16.169 17.3213 16.17 17.3082 16.1719L17.3114 16.1713Z" fill="black"/>
<path fill-rule="evenodd" clip-rule="evenodd" d="M13.6332 9.66031H12.5832V9.93889H13.6198C13.9214 9.93889 14.1658 10.1833 14.1658 10.4849C14.1658 10.7864 13.9214 11.0308 13.6198 11.0308H12.5832V11.7964C12.5832 12.0979 12.3388 12.3423 12.0372 12.3423C11.7357 12.3423 11.4913 12.0979 11.4913 11.7964V11.0308H11.1284C10.8268 11.0308 10.5824 10.7864 10.5824 10.4849C10.5824 10.1833 10.8268 9.93889 11.1284 9.93889H11.4913V9.66031H11.1284C10.8268 9.66031 10.5824 9.41587 10.5824 9.11434C10.5824 8.81282 10.8268 8.56838 11.1284 8.56838H11.4913V6.97473C11.4913 6.50041 11.8758 6.11589 12.3501 6.11589H13.6332C14.612 6.11589 15.4054 6.90934 15.4054 7.8881C15.4054 8.86687 14.612 9.66031 13.6332 9.66031ZM12.5832 8.56838V7.20782H13.6332C14.0089 7.20782 14.3135 7.5124 14.3135 7.8881C14.3135 8.26381 14.0089 8.56838 13.6332 8.56838H12.5832Z" fill="black"/>
<path fill-rule="evenodd" clip-rule="evenodd" d="M12.6844 3.57715C9.69923 3.57715 7.2793 5.99708 7.2793 8.98222C7.2793 11.9674 9.69923 14.3873 12.6844 14.3873C15.6695 14.3873 18.0894 11.9674 18.0894 8.98222C18.0894 5.99708 15.6695 3.57715 12.6844 3.57715ZM8.64421 8.98222C8.64421 6.7509 10.4531 4.94206 12.6844 4.94206C14.9157 4.94206 16.7245 6.7509 16.7245 8.98222C16.7245 11.2135 14.9157 13.0224 12.6844 13.0224C10.4531 13.0224 8.64421 11.2135 8.64421 8.98222Z" fill="black"/>
</g>
<defs>
<clipPath id="clip0_200_2">
<rect width="15.9539" height="15.9539" fill="white" transform="translate(4.19434 3.49512)"/>
</clipPath>
</defs>
</svg>
