<svg width="24" height="24" viewBox="0 0 24 24" fill="none" xmlns="http://www.w3.org/2000/svg">
<g clip-path="url(#clip0_219_887)">
<circle cx="12" cy="12" r="11.5" fill="#C3C0C1" stroke="#676767"/>
<g clip-path="url(#clip1_219_887)">
<path d="M12.9953 7.20499C12.9953 7.48953 12.7405 7.72019 12.4262 7.72019C12.1119 7.72019 11.8571 7.48953 11.8571 7.20499C11.8571 6.92046 12.1119 6.6898 12.4262 6.6898C12.7405 6.6898 12.9953 6.92046 12.9953 7.20499Z" fill="black"/>
<path fill-rule="evenodd" clip-rule="evenodd" d="M6.46643 17.6732C7.84113 18.6818 9.59261 19.2861 11.5 19.2861C15.9183 19.2861 19.5 16.0436 19.5 12.0438C19.5 11.3346 19.3872 10.6481 19.1764 9.99881C19.0567 9.62981 18.6291 9.41858 18.2215 9.527C17.8139 9.63543 17.5806 10.0225 17.7004 10.3915C17.8702 10.9146 17.9615 11.4689 17.9615 12.0438C17.9615 15.2744 15.0686 17.8934 11.5 17.8934C11.3743 17.8934 11.2494 17.8901 11.1255 17.8837C12.4845 17.2174 13.4074 15.9151 13.4074 14.4177C13.4074 13.775 13.2375 13.1684 12.9361 12.6326C12.761 12.3214 12.5817 11.9991 12.5817 11.6498C12.5817 10.4099 13.4326 9.34826 14.6374 8.92059C15.3875 8.65434 15.8844 8.13757 16.0478 7.54116C16.2786 7.50422 16.4538 7.32179 16.4538 7.1023C16.4538 6.88134 16.2762 6.69793 16.0432 6.66272C15.9068 6.19236 15.5527 5.77403 15.0066 5.53257C14.2901 5.21578 13.4823 4.99123 12.659 4.87878C12.4294 3.96675 11.5281 3.28613 10.4511 3.28613C9.20045 3.28613 8.18661 4.20396 8.18661 5.33616C8.18661 5.37391 8.18774 5.41142 8.18997 5.44866C5.42433 6.58805 3.5 9.11169 3.5 12.0438C3.5 14.299 4.63868 16.3135 6.42395 17.6418L6.42218 17.644C6.43686 17.6538 6.45161 17.6636 6.46643 17.6732ZM9.72507 5.33616C9.72507 4.97316 10.0501 4.67889 10.4511 4.67889C10.8521 4.67889 11.1771 4.97316 11.1771 5.33616C11.1771 5.80326 11.5741 6.17319 12.0628 6.21515C12.8625 6.2838 13.6568 6.48575 14.3315 6.78406C14.5118 6.86379 14.5812 7.00191 14.5662 7.14454C14.5518 7.28133 14.4442 7.49318 14.0758 7.62394C12.5348 8.17094 11.383 9.4228 11.1068 10.9428C10.7128 10.7519 10.2827 10.6143 9.828 10.5405C9.40983 10.4727 9.01008 10.7246 8.93514 11.1031C8.8602 11.4817 9.13844 11.8436 9.55662 11.9114C10.8713 12.1247 11.8689 13.1665 11.8689 14.4177C11.8689 15.824 10.6097 16.964 9.05627 16.964C8.40141 16.964 7.81946 16.8248 7.39699 16.5629C5.95683 15.4901 5.03846 13.864 5.03846 12.0438C5.03846 9.68958 6.57499 7.65873 8.79171 6.73104C8.89021 6.82707 8.99869 6.91446 9.11559 6.99183C9.45855 7.21881 9.93983 7.15112 10.1905 6.84064C10.4413 6.53015 10.3665 6.09446 10.0235 5.86748C9.84109 5.74673 9.72507 5.55376 9.72507 5.33616Z" fill="black"/>
</g>
</g>
<defs>
<clipPath id="clip0_219_887">
<rect width="24" height="24" fill="white"/>
</clipPath>
<clipPath id="clip1_219_887">
<rect width="17" height="17" fill="white" transform="translate(3 3)"/>
</clipPath>
</defs>
</svg>
