<svg width="27" height="27" viewBox="0 0 27 27" fill="none" xmlns="http://www.w3.org/2000/svg">
<circle cx="13.5" cy="13.5" r="13.5" fill="#6E6D78"/>
<path d="M15.0887 9.16379C15.0887 9.46611 14.818 9.71118 14.484 9.71118C14.1501 9.71118 13.8794 9.46611 13.8794 9.16379C13.8794 8.86147 14.1501 8.6164 14.484 8.6164C14.818 8.6164 15.0887 8.86147 15.0887 9.16379Z" fill="#C7C5D3"/>
<path fill-rule="evenodd" clip-rule="evenodd" d="M8.15183 20.2862C9.61246 21.3579 11.4734 22 13.5 22C18.1944 22 22 18.5548 22 14.305C22 13.5515 21.8801 12.8221 21.6562 12.1322C21.529 11.7402 21.0747 11.5157 20.6416 11.6309C20.2086 11.7461 19.9606 12.1573 20.0879 12.5494C20.2683 13.1053 20.3654 13.6942 20.3654 14.305C20.3654 17.7375 17.2916 20.5202 13.5 20.5202C13.3664 20.5202 13.2337 20.5167 13.102 20.5099C14.546 19.802 15.5266 18.4183 15.5266 16.8273C15.5266 16.1444 15.3461 15.4999 15.0258 14.9306C14.8398 14.6 14.6493 14.2575 14.6493 13.8864C14.6493 12.569 15.5534 11.441 16.8335 10.9866C17.6304 10.7037 18.1584 10.1547 18.3321 9.52096C18.5773 9.48172 18.7635 9.28788 18.7635 9.05468C18.7635 8.8199 18.5747 8.62503 18.3271 8.58762C18.1822 8.08787 17.806 7.64339 17.2258 7.38684C16.4645 7.05025 15.6062 6.81166 14.7314 6.69218C14.4875 5.72316 13.5298 5 12.3855 5C11.0567 5 9.97952 5.97519 9.97952 7.17815C9.97952 7.21826 9.98072 7.25811 9.98309 7.29769C7.0446 8.50829 5 11.1897 5 14.305C5 16.7012 6.20984 18.8416 8.1067 20.2529L8.10482 20.2552C8.12041 20.2657 8.13608 20.276 8.15183 20.2862ZM11.6141 7.17815C11.6141 6.79247 11.9595 6.47981 12.3855 6.47981C12.8116 6.47981 13.1569 6.79247 13.1569 7.17815C13.1569 7.67445 13.5787 8.0675 14.098 8.11208C14.9476 8.18502 15.7916 8.3996 16.5084 8.71655C16.7001 8.80126 16.7738 8.94801 16.7578 9.09956C16.7425 9.2449 16.6282 9.46999 16.2368 9.60892C14.5995 10.1901 13.3756 11.5202 13.0822 13.1352C12.6636 12.9324 12.2066 12.7862 11.7235 12.7078C11.2792 12.6357 10.8545 12.9033 10.7748 13.3056C10.6952 13.7078 10.9908 14.0923 11.4352 14.1644C12.832 14.391 13.892 15.4978 13.892 16.8273C13.892 18.3215 12.554 19.5327 10.9035 19.5327C10.2077 19.5327 9.58943 19.3849 9.14055 19.1066C7.61039 17.9667 6.63462 16.239 6.63462 14.305C6.63462 11.8037 8.26717 9.64589 10.6224 8.66021C10.7271 8.76224 10.8424 8.8551 10.9666 8.9373C11.331 9.17847 11.8423 9.10654 12.1087 8.77666C12.3751 8.44677 12.2957 7.98384 11.9313 7.74268C11.7374 7.61439 11.6141 7.40935 11.6141 7.17815Z" fill="#C7C5D3"/>
</svg>
