<svg width="292" height="292" viewBox="0 0 292 292" fill="none" xmlns="http://www.w3.org/2000/svg">
<path d="M131.537 160.51C131.27 167.259 136.925 172.76 143.679 172.76C150.357 172.76 154.6 167.219 156.202 160.736C156.266 160.473 156.339 160.226 156.421 159.998C157.49 157.133 159.093 154.611 161.231 152.43C163.412 150.25 166.191 148.155 169.568 146.145C173.587 143.751 177.072 141.079 180.022 138.129C182.972 135.136 185.259 131.716 186.884 127.868C188.551 123.977 189.385 119.531 189.385 114.529C189.385 107.047 187.525 100.655 183.805 95.3535C180.086 90.0519 174.955 86.0117 168.414 83.2327C161.872 80.4109 154.348 79 145.84 79C138.101 79 131.025 80.3895 124.612 83.1685C118.199 85.9048 113.047 90.0733 109.157 95.6741C107.501 98.0392 106.178 100.675 105.189 103.582C102.806 110.58 109.093 116.837 116.485 116.837H119.892C125.068 116.837 128.842 112.346 131.731 108.051C133.313 105.657 135.343 103.862 137.823 102.664C140.303 101.425 142.932 100.805 145.711 100.805C148.576 100.805 151.184 101.403 153.535 102.6C155.93 103.797 157.832 105.508 159.243 107.731C160.654 109.954 161.359 112.541 161.359 115.491C161.359 118.27 160.739 120.792 159.5 123.058C158.26 125.281 156.592 127.312 154.497 129.151C152.402 130.989 150.03 132.763 147.379 134.473C143.83 136.697 140.795 139.176 138.272 141.913C135.75 144.649 133.826 148.24 132.5 152.687C131.925 154.681 131.659 157.421 131.537 160.51Z" fill="#F5CC5C"/>
<path d="M132.244 209.315C135.279 212.307 138.935 213.804 143.21 213.804C145.947 213.804 148.469 213.12 150.778 211.752C153.086 210.341 154.946 208.481 156.357 206.172C157.811 203.821 158.559 201.234 158.602 198.412C158.559 194.222 156.998 190.631 153.92 187.638C150.842 184.645 147.272 183.149 143.21 183.149C138.935 183.149 135.279 184.645 132.244 187.638C129.251 190.631 127.776 194.222 127.819 198.412C127.776 202.645 129.251 206.279 132.244 209.315Z" fill="#F5CC5C"/>
<path fill-rule="evenodd" clip-rule="evenodd" d="M292 146C292 226.634 226.634 292 146 292C65.3664 292 0 226.634 0 146C0 65.3664 65.3664 0 146 0C226.634 0 292 65.3664 292 146ZM267 146C267 212.826 212.826 267 146 267C79.1735 267 25 212.826 25 146C25 79.1735 79.1735 25 146 25C212.826 25 267 79.1735 267 146Z" fill="#F5CC5C"/>
</svg>
