<svg width="12" height="12" viewBox="0 0 12 12" fill="none" xmlns="http://www.w3.org/2000/svg">
<g clip-path="url(#clip0_93_227)">
<path d="M6 0C2.68634 0 0 2.68634 0 6C0 9.31366 2.68634 12 6 12C9.31366 12 12 9.31366 12 6C11.9963 2.68781 9.31219 0.00366211 6 0ZM6 11.4C3.01767 11.4 0.600037 8.98233 0.600037 6C0.600037 3.01767 3.01767 0.600037 6 0.600037C8.98233 0.600037 11.4 3.01767 11.4 6C11.3966 8.98087 8.98087 11.3966 6 11.4Z" fill="white"/>
<path d="M6.60046 8.99994C6.60046 9.33127 6.33176 9.59988 6.00043 9.59988C5.6691 9.59988 5.40039 9.33127 5.40039 8.99994C5.40039 8.66852 5.6691 8.3999 6.00043 8.3999C6.33176 8.3999 6.60046 8.66852 6.60046 8.99994Z" fill="white"/>
<path d="M6.00021 2.3999C5.00659 2.40091 4.20129 3.20621 4.2002 4.19983C4.2002 4.36554 4.3345 4.49985 4.50021 4.49985C4.66583 4.49985 4.80014 4.36554 4.80014 4.19983C4.80014 3.53717 5.33746 2.99985 6.00021 2.99985C6.66287 2.99985 7.2002 3.53717 7.2002 4.19983C7.2002 4.87164 6.84396 5.19803 6.46686 5.54346C6.10742 5.87268 5.7002 6.24567 5.7002 6.8999C5.7002 7.06552 5.8345 7.19983 6.00012 7.19983C6.16583 7.19983 6.30014 7.06552 6.30014 6.8999C6.30014 6.52783 6.50668 6.32037 6.87198 5.98584C7.28571 5.6069 7.80014 5.13559 7.80014 4.19983C7.79913 3.20621 6.99384 2.40091 6.00021 2.3999Z" fill="white"/>
</g>
<defs>
<clipPath id="clip0_93_227">
<rect width="12" height="12" fill="white"/>
</clipPath>
</defs>
</svg>
