<svg width="26" height="30" viewBox="0 0 26 30" fill="none" xmlns="http://www.w3.org/2000/svg">
<path d="M4.19987 1.7998H21.7999C23.2665 1.7998 24.4665 2.9998 24.4665 4.46647V7.39981C24.4665 8.46647 23.7999 9.79981 23.1332 10.4665L17.3999 15.5331C16.5999 16.1998 16.0665 17.5331 16.0665 18.5998V24.3331C16.0665 25.1331 15.5332 26.1998 14.8665 26.5998L12.9999 27.7998C11.2665 28.8665 8.86654 27.6665 8.86654 25.5331V18.4665C8.86654 17.5331 8.3332 16.3331 7.79987 15.6665L2.7332 10.3331C2.06654 9.66647 1.5332 8.46647 1.5332 7.66647V4.5998C1.5332 2.9998 2.7332 1.7998 4.19987 1.7998Z" stroke="#B3B6BA" stroke-width="2" stroke-miterlimit="10" stroke-linecap="round" stroke-linejoin="round"/>
</svg>
