<svg width="26" height="30" viewBox="0 0 24 28" fill="none" xmlns="http://www.w3.org/2000/svg">
<path d="M3.19987 0.799805H20.7999C22.2665 0.799805 23.4665 1.9998 23.4665 3.46647V6.39981C23.4665 7.46647 22.7999 8.79981 22.1332 9.46647L16.3999 14.5331C15.5999 15.1998 15.0665 16.5331 15.0665 17.5998V23.3331C15.0665 24.1331 14.5332 25.1998 13.8665 25.5998L11.9999 26.7998C10.2665 27.8665 7.86654 26.6665 7.86654 24.5331V17.4665C7.86654 16.5331 7.3332 15.3331 6.79987 14.6665L1.7332 9.33314C1.06654 8.66647 0.533203 7.46647 0.533203 6.66647V3.5998C0.533203 1.9998 1.7332 0.799805 3.19987 0.799805Z" fill="#FDCA40"/>
</svg>
