<svg width="18" height="18" viewBox="0 0 18 18" fill="none" xmlns="http://www.w3.org/2000/svg">
<path fill-rule="evenodd" clip-rule="evenodd" d="M16.4589 9C16.4589 13.1194 13.1194 16.4589 9 16.4589C4.88056 16.4589 1.5411 13.1194 1.5411 9C1.5411 4.88056 4.88056 1.5411 9 1.5411C13.1194 1.5411 16.4589 4.88056 16.4589 9ZM18 9C18 13.9706 13.9706 18 9 18C4.02944 18 0 13.9706 0 9C0 4.02944 4.02944 0 9 0C13.9706 0 18 4.02944 18 9ZM13.5216 7.49077C13.8225 7.18983 13.8225 6.70192 13.5216 6.40103C13.2207 6.10011 12.7328 6.10011 12.4319 6.40103L7.82741 11.0055L5.58123 8.64703C5.28774 8.33887 4.8 8.32697 4.49184 8.62046C4.18367 8.91395 4.17178 9.40167 4.46527 9.70983L6.96014 12.3295C7.42093 12.8133 8.18969 12.8227 8.66213 12.3502L13.5216 7.49077Z" fill="#51CB20"/>
</svg>
